<?xml version="1.0" standalone="no"?>
<!DOCTYPE svg PUBLIC "-//W3C//DTD SVG 20010904//EN"
 "http://www.w3.org/TR/2001/REC-SVG-20010904/DTD/svg10.dtd">
<svg version="1.0" xmlns="http://www.w3.org/2000/svg"
 width="700.000000pt" height="700.000000pt" viewBox="0 0 700.000000 700.000000"
 preserveAspectRatio="xMidYMid meet">
<metadata>
Created by potrace 1.14, written by Peter Selinger 2001-2017
</metadata>
<g transform="translate(0.000000,700.000000) scale(0.100000,-0.100000)"
fill="#000000" stroke="none">
<path d="M2905 6010 c-4 -6 -10 -8 -15 -5 -5 3 -11 1 -15 -4 -3 -5 -14 -8 -25
-6 -11 2 -20 1 -20 -4 0 -4 -18 -6 -40 -5 -22 1 -40 -3 -40 -7 0 -5 -9 -4 -19
3 -15 9 -23 9 -37 -3 -16 -12 -17 -12 -9 1 8 13 6 13 -8 2 -9 -8 -21 -11 -27
-7 -5 3 -10 1 -10 -6 0 -7 -7 -4 -16 7 -8 10 -13 14 -10 8 3 -7 -1 -14 -9 -18
-8 -3 -15 -2 -15 2 0 4 -9 8 -20 8 -11 0 -20 -5 -20 -10 0 -5 -3 -6 -7 -3 -3
4 -13 1 -21 -6 -13 -9 -14 -9 -8 0 10 17 -25 4 -39 -14 -5 -7 -31 -14 -57 -16
-27 -1 -50 -7 -52 -14 -3 -7 -12 -10 -19 -7 -8 3 -21 -1 -28 -9 -8 -7 -20 -12
-27 -9 -6 2 -12 -2 -12 -8 0 -7 -7 -10 -16 -6 -9 4 -13 2 -8 -5 4 -7 1 -10 -7
-7 -7 2 -20 -4 -29 -14 -8 -10 -25 -20 -37 -21 -13 -1 -23 -5 -23 -9 0 -4 -9
-8 -19 -8 -28 0 -52 -11 -45 -21 3 -5 0 -9 -5 -9 -20 0 -26 -3 -37 -18 -7 -9
-16 -12 -24 -7 -9 6 -11 4 -6 -4 5 -8 0 -14 -13 -18 -12 -3 -21 -9 -21 -14 0
-5 -5 -9 -11 -9 -5 0 -7 5 -3 12 4 7 3 8 -4 4 -7 -4 -12 -14 -12 -22 0 -8 -7
-14 -15 -14 -8 0 -15 -4 -15 -8 0 -5 -11 -15 -25 -22 -14 -7 -25 -19 -25 -27
0 -7 -3 -12 -7 -12 -17 3 -36 -1 -31 -7 8 -7 -79 -94 -94 -94 -6 0 -8 -3 -5
-7 4 -3 -5 -16 -18 -29 -14 -13 -25 -28 -25 -33 0 -6 -6 -8 -14 -5 -9 3 -17
-6 -24 -26 -6 -16 -18 -33 -27 -36 -8 -3 -15 -12 -15 -20 0 -7 -9 -19 -20 -27
-11 -8 -17 -17 -13 -20 3 -4 1 -7 -6 -7 -7 0 -9 -4 -6 -10 3 -5 1 -10 -4 -10
-6 0 -11 -6 -11 -14 0 -8 -13 -27 -30 -43 -16 -15 -30 -32 -30 -37 0 -4 -11
-17 -25 -28 -14 -11 -23 -24 -20 -29 4 -5 -1 -9 -9 -9 -9 0 -16 -4 -16 -10 0
-11 -21 -38 -62 -78 -16 -14 -28 -32 -28 -40 0 -7 -7 -15 -15 -18 -8 -4 -15
-13 -15 -22 0 -8 -3 -13 -6 -9 -8 8 -44 -25 -44 -41 0 -7 -4 -11 -9 -7 -6 3
-15 -4 -21 -15 -6 -11 -16 -19 -23 -17 -7 1 -11 -4 -9 -10 1 -7 -5 -13 -13
-13 -8 0 -15 -5 -15 -11 0 -5 -5 -7 -10 -4 -6 3 -10 1 -10 -5 0 -6 -5 -8 -10
-5 -6 3 -13 -1 -16 -9 -3 -9 -12 -16 -19 -16 -8 0 -11 -8 -8 -20 3 -12 0 -20
-7 -20 -9 0 -10 -3 -1 -14 9 -10 8 -15 -4 -19 -11 -5 -13 -12 -5 -31 6 -17 6
-27 -1 -32 -6 -4 -6 -11 2 -20 9 -11 9 -14 -1 -14 -9 0 -9 -4 1 -17 10 -12 10
-15 1 -9 -7 4 -3 -9 8 -28 13 -24 16 -36 7 -36 -8 0 -9 -3 -1 -8 6 -4 10 -19
10 -34 -1 -14 1 -25 5 -22 12 7 18 -23 6 -35 -8 -8 -8 -11 1 -11 7 0 12 -9 12
-21 0 -13 -4 -18 -12 -13 -10 6 -10 4 0 -7 6 -7 12 -23 12 -36 0 -13 -6 -23
-12 -23 -10 0 -10 -2 -2 -8 13 -8 17 -34 15 -95 -1 -21 -5 -36 -9 -33 -5 3 -9
-1 -9 -9 0 -8 5 -11 11 -8 6 3 6 1 -1 -7 -6 -7 -9 -19 -6 -28 5 -11 3 -13 -8
-7 -12 8 -12 6 0 -8 8 -10 9 -17 3 -17 -7 0 -8 -10 -2 -30 5 -17 5 -30 0 -30
-5 0 -5 -13 0 -30 6 -20 5 -30 -2 -30 -6 0 -5 -7 3 -17 12 -14 12 -16 0 -8
-11 6 -13 4 -7 -11 10 -24 11 -109 1 -125 -5 -7 -4 -10 2 -6 6 4 14 0 17 -9 4
-10 2 -13 -7 -8 -9 6 -9 4 1 -8 7 -8 13 -34 15 -57 1 -22 5 -41 8 -41 4 0 10
-7 13 -16 4 -9 2 -13 -5 -8 -8 4 -8 1 -2 -12 5 -11 8 -29 7 -42 0 -12 3 -25 8
-28 5 -3 6 -14 3 -25 -5 -14 -2 -19 12 -19 14 0 15 -2 4 -9 -10 -6 -10 -10 -1
-13 6 -2 13 -21 14 -43 1 -22 7 -49 13 -59 6 -10 8 -27 6 -37 -3 -11 0 -19 6
-19 6 0 11 -7 11 -15 0 -9 8 -32 19 -53 10 -20 16 -42 14 -49 -2 -6 0 -14 6
-17 6 -4 8 -13 4 -21 -3 -8 0 -15 6 -15 6 0 11 -14 11 -30 0 -19 6 -33 16 -37
11 -4 12 -8 4 -13 -8 -5 -8 -11 2 -21 7 -8 14 -21 16 -29 2 -8 8 -17 13 -18 5
-2 7 -8 3 -13 -3 -5 0 -9 5 -9 6 0 10 -3 9 -7 -4 -16 14 -53 23 -48 5 4 9 -1
9 -9 0 -25 2 -30 18 -42 9 -7 12 -16 7 -24 -5 -9 -4 -11 3 -6 8 5 12 0 12 -13
0 -12 5 -21 10 -21 6 0 10 -7 10 -15 0 -8 5 -15 11 -15 5 0 8 -4 4 -9 -3 -5
-1 -12 5 -16 6 -4 8 -11 5 -16 -4 -5 1 -12 10 -15 9 -4 14 -13 11 -20 -3 -7 4
-16 16 -20 16 -5 18 -8 7 -15 -10 -6 -8 -9 9 -9 12 0 22 -5 22 -11 0 -5 -5 -7
-12 -3 -7 4 -8 3 -4 -4 4 -7 15 -12 24 -12 15 0 15 -2 2 -10 -10 -7 -11 -10
-2 -10 7 0 20 -16 29 -35 9 -19 20 -32 25 -29 4 3 5 -2 2 -10 -3 -9 -1 -16 5
-16 6 0 11 -7 11 -15 0 -8 5 -15 10 -15 6 0 10 -6 10 -14 0 -8 6 -16 14 -19 9
-4 12 -14 9 -28 -4 -14 -2 -20 5 -15 10 6 28 -30 23 -48 -1 -5 6 -3 15 5 16
12 17 12 11 -3 -6 -18 15 -43 27 -30 4 4 7 3 6 -3 -5 -22 1 -35 16 -35 8 0 13
-4 10 -9 -7 -11 29 -53 38 -44 3 3 6 1 6 -6 0 -14 30 -47 30 -34 0 4 5 0 11
-9 5 -10 17 -18 24 -18 8 0 15 -4 15 -10 0 -5 4 -10 10 -10 16 0 50 -33 50
-50 0 -13 1 -13 10 0 6 10 10 11 10 3 0 -15 36 -53 50 -53 6 0 10 -5 10 -11 0
-5 5 -7 10 -4 6 3 10 1 10 -4 0 -6 6 -10 13 -8 6 1 11 -4 9 -12 -2 -8 3 -11
13 -8 9 4 20 -1 27 -13 7 -11 21 -20 31 -20 10 0 15 -4 12 -10 -3 -5 0 -10 8
-10 7 0 23 -9 35 -20 12 -11 26 -20 32 -20 5 0 10 -4 10 -9 0 -5 7 -12 16 -15
8 -3 12 -2 9 3 -10 17 60 -21 78 -43 10 -11 16 -15 12 -8 -3 6 -2 12 3 12 6 0
13 -7 16 -16 3 -8 10 -13 15 -10 13 8 42 -4 35 -15 -3 -5 2 -6 11 -3 9 4 27 2
41 -5 13 -6 35 -16 49 -23 13 -6 21 -16 18 -21 -4 -6 0 -8 10 -4 10 3 17 2 17
-4 0 -6 5 -7 10 -4 6 3 10 1 10 -5 0 -6 5 -8 10 -5 6 3 10 2 10 -4 0 -6 7 -7
17 -4 11 4 14 3 9 -6 -5 -8 -3 -12 5 -10 28 3 50 -1 45 -10 -9 -14 47 -21 63
-8 12 9 13 9 7 -1 -5 -9 4 -12 34 -12 27 0 39 4 34 11 -3 6 8 3 25 -5 17 -9
33 -16 36 -16 3 0 4 -1 3 -3 -7 -6 28 -34 36 -29 5 3 7 -2 3 -11 -3 -10 -3
-17 1 -17 4 0 7 -12 6 -27 -1 -16 2 -32 6 -38 10 -15 10 -54 -1 -60 -5 -4 -6
-12 -2 -18 10 -17 11 -117 1 -117 -5 0 -5 -7 0 -18 8 -16 9 -89 1 -122 -2 -8
-11 -21 -19 -28 -12 -11 -12 -12 -1 -6 24 13 -24 -49 -59 -76 -18 -14 -41 -32
-50 -40 -10 -8 -28 -23 -39 -32 -12 -10 -26 -18 -32 -18 -5 0 -8 -4 -5 -9 3
-5 -5 -12 -19 -15 -14 -4 -24 -10 -22 -15 1 -5 -15 -25 -35 -45 -20 -20 -33
-36 -28 -36 5 0 10 -10 12 -22 2 -13 9 -22 16 -21 6 2 12 -2 12 -7 0 -6 5 -10
11 -10 5 0 7 4 4 10 -3 6 1 7 9 4 10 -4 16 -1 16 7 0 7 3 9 7 6 3 -4 12 1 20
11 8 9 11 11 7 3 -5 -9 -3 -12 4 -7 7 4 12 14 12 22 0 8 5 12 10 9 6 -3 13 1
16 9 3 9 10 13 15 10 5 -3 9 0 9 6 0 6 15 17 34 25 18 8 36 21 39 30 8 19 56
20 63 0 4 -8 10 -12 15 -9 5 3 14 -8 21 -23 7 -15 17 -31 21 -34 5 -4 4 -10
-2 -14 -8 -5 -9 -11 -2 -19 6 -7 11 -26 13 -43 1 -18 5 -30 9 -27 7 4 22 -35
20 -50 -1 -5 5 -4 13 4 12 9 16 9 16 1 0 -7 5 -9 10 -6 6 4 8 10 5 15 -3 4 0
10 6 12 6 2 12 16 12 31 1 15 6 27 11 27 4 0 6 9 3 20 -3 11 -1 18 4 14 5 -3
9 4 9 15 0 12 5 21 10 21 6 0 10 7 10 16 0 10 5 14 16 10 8 -3 12 -2 9 4 -3 6
-1 10 4 10 6 0 11 -6 11 -12 0 -8 3 -9 8 -3 10 14 41 12 51 -4 5 -7 13 -11 19
-7 6 3 13 2 17 -4 3 -5 13 -10 21 -10 18 0 46 -25 37 -34 -4 -3 1 -6 9 -6 9 0
19 -6 21 -12 4 -10 8 -9 16 2 6 8 11 10 11 4 0 -6 6 -11 13 -11 20 0 18 36 -4
50 -10 6 -19 18 -19 25 0 7 -4 10 -10 7 -5 -3 -10 1 -10 10 0 11 -5 15 -16 11
-8 -3 -13 -2 -10 3 3 5 -10 21 -29 36 -19 16 -32 32 -29 37 3 4 -2 8 -10 8 -9
0 -16 4 -16 10 0 5 -7 6 -17 3 -11 -4 -14 -3 -9 5 5 8 0 12 -13 12 -11 0 -25
8 -30 18 -6 9 -11 14 -11 10 0 -14 -50 35 -50 49 0 8 -3 12 -7 10 -5 -3 -17 5
-28 16 -11 11 -15 17 -9 14 7 -4 4 9 -6 29 -11 20 -16 43 -13 51 4 10 2 14 -4
10 -5 -3 -10 0 -10 8 0 8 4 12 9 9 4 -3 8 0 8 5 0 6 -4 11 -9 11 -11 0 -9 40
4 59 6 10 4 12 -5 6 -10 -6 -12 -4 -7 8 4 10 10 25 13 35 5 14 4 15 -5 2 -6
-8 -11 -10 -11 -4 0 6 3 14 7 18 13 13 14 48 1 41 -7 -4 -6 -1 3 7 11 9 14 20
9 33 -4 11 -3 29 3 40 6 11 10 21 9 23 -1 1 -1 5 -1 10 6 40 19 63 32 55 7 -4
8 0 3 13 -4 10 -4 15 0 11 4 -4 17 -1 28 6 12 8 31 13 44 12 12 -1 22 2 22 7
0 5 5 6 10 3 6 -3 10 -1 10 5 0 6 5 8 10 5 6 -4 7 -12 3 -18 -4 -7 0 -7 10 1
21 17 82 28 72 13 -11 -19 3 -12 26 12 12 12 19 15 15 7 -6 -12 -5 -12 6 1 7
9 19 14 26 12 6 -3 12 -1 12 4 0 8 127 11 140 3 12 -7 46 -4 52 4 3 5 15 10
25 11 10 0 25 5 32 10 10 6 12 4 6 -6 -7 -11 -6 -12 6 -2 20 16 31 17 40 1 7
-10 9 -9 9 5 0 14 4 16 19 7 14 -7 22 -7 26 1 4 6 13 8 20 5 7 -2 16 -2 20 2
11 11 115 8 115 -3 0 -5 4 -4 9 4 5 8 18 12 30 8 12 -3 19 -2 17 2 -3 4 4 7
14 7 10 0 16 -5 13 -10 -4 -5 1 -7 9 -3 18 6 107 -67 96 -79 -4 -4 -3 -15 2
-25 7 -12 6 -19 -3 -22 -9 -4 -9 -6 1 -6 7 -1 10 -6 7 -11 -4 -6 -1 -18 7 -27
9 -12 9 -15 1 -9 -7 4 -13 2 -13 -3 0 -6 5 -11 10 -11 7 0 7 -6 0 -19 -7 -14
-7 -20 2 -23 8 -3 8 -10 -2 -27 -6 -13 -7 -21 -2 -17 12 7 10 -32 -1 -51 -4
-6 -3 -14 3 -18 5 -3 10 -13 10 -21 0 -9 -5 -12 -11 -8 -8 5 -8 1 0 -13 7 -14
7 -23 -1 -31 -9 -9 -8 -12 3 -12 11 0 11 -2 1 -9 -7 -4 -14 -24 -15 -45 -1
-25 -6 -35 -15 -31 -7 3 -11 1 -8 -4 7 -11 -29 -43 -38 -34 -4 5 -7 3 -6 -2 4
-18 0 -38 -6 -32 -8 8 -44 -25 -38 -35 3 -5 2 -8 -3 -7 -17 3 -36 -1 -30 -7 7
-8 -54 -60 -66 -56 -5 1 -6 -2 -3 -7 4 -5 -3 -12 -14 -16 -11 -4 -18 -11 -15
-16 4 -5 0 -9 -7 -9 -16 -1 -58 -35 -58 -48 0 -5 -6 -10 -12 -9 -31 1 -49 -4
-44 -11 3 -5 -5 -8 -17 -7 -12 1 -25 -3 -29 -9 -5 -7 -8 -6 -8 4 0 9 -3 11 -8
5 -4 -5 -16 -15 -27 -21 -26 -14 -28 -51 -4 -75 12 -12 19 -14 19 -6 0 8 3 9
8 1 8 -13 42 -15 42 -3 0 5 7 6 16 2 10 -4 20 0 26 10 5 10 16 17 23 17 8 0
15 4 15 10 0 5 3 9 8 8 12 -4 72 24 72 33 0 5 3 8 8 7 4 -1 20 2 35 7 19 5 25
10 16 15 -7 5 4 8 25 8 23 0 39 -5 43 -14 3 -8 9 -11 14 -8 5 3 6 -3 2 -12 -4
-11 -3 -15 5 -10 6 3 14 1 18 -5 4 -8 3 -9 -4 -5 -12 7 -11 -20 2 -79 3 -11 5
-24 5 -29 1 -5 4 -6 7 -3 4 3 14 2 23 -2 19 -11 39 7 35 32 -1 9 3 15 9 14 7
-1 11 6 9 16 -2 9 3 17 9 17 7 0 9 3 6 7 -4 3 -2 12 4 20 6 7 8 13 3 13 -5 0
8 11 28 25 40 27 68 32 68 13 0 -9 3 -8 10 2 8 13 10 13 15 -1 3 -8 15 -16 27
-16 12 -1 24 -6 27 -10 3 -4 17 -10 31 -11 14 -2 27 -8 28 -13 2 -5 11 -9 19
-9 9 0 24 -10 34 -22 11 -11 19 -17 19 -13 0 5 7 0 15 -11 8 -10 15 -15 15
-10 0 5 7 3 15 -4 8 -7 15 -8 15 -3 0 6 11 9 26 7 22 -2 23 0 12 14 -10 12
-10 14 0 8 8 -5 11 -1 8 16 -2 13 -9 22 -15 21 -6 -2 -11 6 -11 17 0 10 -9 24
-19 30 -11 5 -22 19 -26 29 -3 11 -19 25 -35 32 -16 8 -26 17 -23 23 3 5 1 6
-5 3 -12 -8 -44 2 -37 12 2 4 -12 13 -31 20 -31 11 -39 21 -35 44 1 5 -2 6 -6
4 -5 -3 -17 7 -27 21 -12 16 -14 23 -5 18 8 -4 6 -1 -3 7 -14 11 -15 16 -5 27
9 10 9 11 0 6 -8 -4 -14 -2 -14 6 -1 7 -3 27 -4 43 -2 17 -4 30 -5 30 -2 0 -4
14 -5 30 -2 17 -4 30 -5 30 -8 0 -6 43 3 54 9 12 9 13 0 7 -7 -4 -13 -3 -13 3
0 5 6 12 13 14 10 4 10 6 0 6 -7 1 -13 8 -13 16 0 8 6 15 13 15 7 0 8 3 2 8
-13 9 -20 46 -7 38 5 -3 9 1 9 9 0 8 -3 12 -7 10 -3 -2 -6 5 -6 15 0 15 3 17
16 7 12 -9 12 -8 -1 8 -17 20 -17 34 -3 69 5 13 4 17 -4 12 -8 -4 -8 3 -1 26
12 43 11 57 -2 38 -9 -12 -10 -12 -5 3 3 10 6 21 6 23 0 3 3 3 8 0 4 -2 8 9 8
25 2 28 28 69 43 67 20 -2 31 3 25 14 -5 8 -2 9 10 5 10 -4 19 -1 22 8 3 7 12
11 20 8 8 -3 14 0 14 5 0 6 9 9 20 7 11 -2 20 2 20 8 0 7 4 6 11 -3 8 -11 12
-12 16 -2 2 6 9 12 14 12 6 0 7 -5 3 -12 -4 -6 3 -4 15 5 13 8 30 13 37 10 8
-3 14 0 14 6 0 6 7 8 15 5 8 -4 15 -1 15 6 0 10 3 10 15 0 10 -9 15 -9 15 -1
0 6 8 11 18 11 10 0 23 5 30 12 9 9 12 9 12 -1 0 -11 3 -11 17 0 14 12 16 12
9 -1 -4 -9 -1 -8 7 3 16 20 32 23 21 4 -4 -6 5 -1 21 13 16 14 25 19 21 13 -4
-8 -1 -13 9 -13 9 0 13 4 10 10 -3 5 -3 10 2 11 29 2 59 12 95 29 23 11 44 18
46 15 3 -3 11 4 19 15 14 20 79 43 95 34 4 -3 8 2 8 11 0 9 5 13 11 10 6 -4
17 1 25 11 9 11 12 12 8 4 -6 -12 -4 -12 12 1 10 9 29 20 42 23 12 4 22 12 22
18 0 5 6 8 14 5 8 -3 17 1 20 10 4 9 14 13 26 10 11 -3 18 -1 14 4 -5 9 4 12
38 12 10 0 15 4 12 8 -3 5 1 9 9 9 7 0 23 9 35 20 12 12 22 18 22 14 0 -3 8 0
17 7 14 12 16 12 9 -1 -4 -9 -1 -8 7 3 8 9 22 17 31 17 10 0 15 4 12 9 -3 5 1
12 10 15 8 3 12 11 8 17 -4 8 -3 9 4 5 7 -4 12 -2 12 3 0 6 6 11 13 11 7 0 19
9 27 20 8 11 20 20 27 20 6 0 15 5 19 12 4 7 3 8 -4 4 -7 -4 -12 -2 -12 3 0 6
7 11 16 11 8 0 13 4 9 9 -3 5 4 12 15 16 11 3 20 11 20 16 0 5 4 8 9 6 5 -1
17 7 26 18 9 11 13 14 9 6 -5 -9 -3 -12 4 -7 7 4 12 14 12 22 0 9 5 12 12 8 8
-5 9 -2 5 9 -3 9 -2 16 2 14 5 -1 20 10 34 25 14 15 28 24 31 20 4 -3 4 2 0
12 -6 15 -4 17 6 11 8 -5 11 -4 7 1 -7 13 2 26 33 47 15 11 19 17 10 17 -10 0
-7 7 10 21 14 11 19 18 13 14 -14 -7 -18 11 -4 19 5 3 9 17 9 31 0 15 -5 22
-12 18 -7 -4 -6 -1 1 8 10 12 10 18 0 29 -9 10 -9 11 1 6 15 -9 16 6 0 22 -9
9 -9 12 3 12 12 0 12 2 -1 10 -12 8 -13 11 -1 19 11 7 11 9 0 14 -12 5 -12 7
0 15 11 8 11 10 0 14 -12 4 -11 8 1 23 8 10 10 16 4 12 -7 -4 -11 4 -10 22 1
16 4 27 9 24 4 -2 8 8 9 24 0 15 3 39 4 53 2 14 4 33 5 43 1 9 6 17 11 17 5 0
7 4 3 10 -5 9 -3 17 24 68 6 13 9 27 6 32 -4 6 -1 10 4 10 6 0 11 5 11 11 0 5
-5 7 -11 3 -6 -3 -3 5 6 20 12 18 14 26 5 26 -9 0 -10 3 -1 13 6 8 9 23 6 35
-2 12 0 22 5 22 4 0 6 8 4 18 -3 9 3 26 14 37 10 11 17 26 14 33 -2 7 2 11 10
10 7 -2 12 3 11 10 -2 6 2 12 8 12 6 0 9 7 5 15 -3 9 3 19 14 25 11 6 19 16
17 23 -1 7 5 11 13 9 8 -2 12 -1 8 3 -9 10 12 66 23 59 5 -3 9 0 9 5 0 6 0 13
0 16 0 2 11 16 24 30 13 14 23 34 21 43 -1 9 2 22 7 29 5 7 5 14 -2 18 -6 3
-8 11 -5 16 4 5 1 9 -5 9 -6 0 -8 5 -5 10 4 6 3 10 -2 9 -4 -1 -10 -1 -13 1
-23 8 -50 8 -50 -1 0 -6 -7 -8 -17 -5 -10 4 -14 4 -10 0 3 -4 -3 -15 -15 -25
-11 -11 -18 -19 -14 -19 4 0 -5 -11 -20 -25 -15 -14 -23 -25 -19 -25 4 0 -1
-8 -12 -17 -11 -10 -22 -25 -26 -33 -3 -9 -6 -10 -6 -3 -1 10 -7 10 -26 1 -21
-10 -28 -8 -44 10 -10 12 -24 22 -30 22 -7 0 -9 5 -6 10 3 6 -1 10 -9 10 -9 0
-16 4 -16 9 0 5 -12 16 -26 26 -18 12 -24 13 -19 4 3 -8 0 -6 -8 3 -8 10 -16
15 -20 12 -3 -3 -8 3 -12 13 -7 20 -98 93 -115 93 -6 0 -9 4 -5 9 3 5 -5 11
-17 13 -13 2 -22 9 -20 16 1 8 -2 11 -8 7 -11 -7 -40 17 -40 34 0 6 -9 11 -21
11 -11 0 -17 5 -14 10 3 6 -5 14 -18 19 -14 6 -28 15 -33 22 -5 8 -3 10 7 4 8
-5 11 -4 6 1 -5 5 -13 10 -18 10 -5 1 -14 2 -20 3 -5 0 -7 6 -4 11 3 6 -1 10
-10 10 -9 0 -13 5 -10 10 4 6 -5 10 -20 10 -15 0 -24 4 -20 10 3 6 -1 7 -9 4
-9 -3 -16 -1 -16 5 0 6 -7 11 -16 11 -9 0 -14 6 -11 13 3 8 -4 14 -16 15 -12
0 -23 6 -25 12 -2 5 -10 10 -18 10 -8 0 -14 5 -14 11 0 5 -4 7 -10 4 -5 -3
-10 -2 -10 4 0 6 -11 13 -24 17 -14 3 -27 12 -30 20 -3 8 -13 14 -22 14 -8 0
-23 9 -32 21 -15 17 -33 25 -65 28 -5 1 -5 5 -2 11 3 5 -6 12 -21 16 -19 5
-22 9 -12 15 10 7 8 9 -7 10 -11 1 -24 1 -28 0 -5 -1 -6 3 -3 8 3 5 -2 15 -11
22 -12 10 -14 10 -9 2 4 -7 2 -13 -3 -13 -6 0 -11 6 -11 14 0 7 -16 21 -35 30
-19 9 -37 22 -41 29 -5 8 -1 7 12 -2 10 -8 2 2 -19 22 -21 21 -42 37 -48 37
-5 0 -9 7 -9 15 0 8 -13 24 -30 37 -16 12 -30 28 -30 35 0 7 -6 12 -12 11 -7
-2 -12 3 -10 10 1 6 -3 12 -9 12 -6 0 -17 7 -25 15 -9 8 -12 15 -9 15 4 0 -7
14 -25 30 -18 17 -29 30 -25 30 3 0 -9 14 -27 31 -18 18 -26 28 -18 25 10 -5
9 -2 -2 7 -10 8 -14 18 -10 22 4 5 1 5 -6 1 -7 -4 -15 0 -19 11 -3 10 -15 26
-25 36 -10 10 -16 22 -13 27 3 5 -3 15 -13 22 -24 16 -52 70 -52 99 0 16 -4
20 -17 15 -10 -4 -14 -4 -10 0 4 4 -1 13 -11 21 -11 10 -12 12 -2 8 8 -4 2 5
-13 18 -16 14 -30 36 -30 50 -1 14 -5 23 -9 20 -5 -2 -8 2 -8 10 0 8 -9 22
-20 32 -11 10 -17 21 -15 25 3 4 -2 10 -10 14 -8 3 -15 10 -15 16 0 6 -11 26
-25 44 -14 18 -22 36 -18 39 3 4 1 7 -6 7 -7 0 -10 3 -7 8 7 11 -40 83 -49 74
-4 -4 -5 -1 -1 6 5 8 0 20 -13 31 -11 10 -18 21 -14 25 3 3 1 6 -5 6 -6 0 -9
7 -5 17 4 11 3 14 -5 9 -7 -4 -12 -1 -12 7 0 7 -11 24 -25 37 -13 12 -22 27
-19 31 3 5 0 9 -5 9 -6 0 -11 7 -11 15 0 8 -4 15 -10 15 -5 0 -10 7 -10 15 0
8 -9 20 -20 27 -11 7 -20 18 -20 25 0 7 -5 13 -11 13 -7 0 -22 11 -34 24 -13
14 -26 22 -29 19 -3 -4 -6 0 -6 9 0 19 -32 48 -54 48 -9 0 -19 7 -23 16 -3 8
-12 13 -19 10 -8 -3 -14 1 -14 9 0 7 -5 17 -12 21 -7 4 -8 3 -4 -4 4 -7 2 -12
-3 -12 -6 0 -11 7 -11 16 0 8 -4 13 -9 10 -4 -3 -16 1 -27 8 -10 8 -25 11 -33
8 -9 -3 -12 -1 -7 6 4 6 -1 11 -11 11 -36 -1 -95 20 -88 30 2 5 -8 8 -23 8
-41 -1 -102 13 -102 23 0 5 -9 7 -20 5 -11 -2 -22 0 -25 6 -4 5 -13 5 -25 -1
-10 -6 -21 -6 -24 -2 -3 5 -21 8 -41 7 -19 -1 -38 2 -41 6 -2 4 -12 5 -21 2
-11 -4 -14 -3 -9 5 4 7 3 12 -3 12 -5 0 -13 -5 -16 -10 -4 -6 -18 -2 -38 12
-17 12 -27 17 -23 10 4 -7 2 -12 -3 -12 -6 0 -11 4 -11 8 0 5 -7 9 -15 9 -8 0
-15 -3 -15 -7 0 -8 -23 -11 -60 -9 -14 1 -41 2 -60 2 -19 0 -38 5 -42 11 -5 7
-8 7 -8 -2 0 -7 -5 -10 -10 -7 -6 4 -8 11 -5 16 4 5 4 9 1 9 -3 0 -8 -5 -11
-10z m-115 -141 c0 7 4 9 10 6 19 -12 195 -13 209 -1 11 8 13 8 8 0 -4 -8 7
-11 33 -11 22 0 37 3 35 8 -3 4 8 4 24 -1 16 -4 32 -6 35 -3 8 8 70 8 84 -1 7
-4 16 -5 20 -2 5 3 19 -4 30 -15 14 -13 22 -15 22 -7 0 8 3 9 8 3 8 -11 24
-16 65 -20 15 -1 33 -8 40 -14 8 -6 17 -8 20 -5 3 3 12 2 19 -2 7 -5 24 -10
38 -12 14 -2 29 -7 34 -13 6 -5 17 -9 26 -9 8 0 21 -9 28 -20 7 -11 18 -20 25
-20 8 0 7 4 -3 10 -9 6 -10 10 -3 10 6 0 15 -5 18 -11 4 -6 13 -8 21 -5 8 3
14 1 14 -5 0 -6 5 -7 10 -4 6 3 10 1 10 -4 0 -6 4 -10 9 -8 10 2 51 -41 51
-55 0 -5 5 -6 10 -3 6 3 10 -1 10 -9 0 -9 9 -16 20 -16 11 0 20 -6 20 -14 0
-8 9 -18 20 -21 11 -4 18 -10 15 -15 -3 -5 4 -14 16 -20 11 -7 18 -14 15 -17
-3 -3 10 -20 29 -38 19 -17 35 -37 35 -43 0 -7 5 -12 12 -12 6 0 9 -3 5 -6 -6
-6 1 -17 34 -53 8 -9 13 -23 11 -29 -2 -7 2 -12 9 -12 7 0 10 -3 6 -6 -5 -6 8
-23 51 -68 12 -13 22 -26 22 -30 0 -4 7 -14 15 -23 8 -8 13 -19 10 -24 -4 -5
-1 -9 5 -9 6 0 8 -4 5 -10 -3 -5 -3 -10 2 -10 10 0 43 -57 43 -76 0 -8 4 -14
9 -14 5 0 12 -7 15 -16 4 -9 2 -13 -5 -8 -7 4 -1 -8 12 -27 13 -19 30 -38 37
-42 6 -4 12 -14 12 -22 0 -7 7 -20 15 -28 8 -8 16 -21 17 -28 2 -7 18 -26 36
-42 17 -16 32 -35 32 -43 0 -8 5 -14 11 -14 5 0 7 -4 4 -10 -3 -5 -1 -10 4
-10 6 0 11 -7 11 -15 0 -9 7 -18 15 -21 8 -4 12 -10 9 -15 -3 -5 0 -9 7 -9 7
0 10 -3 6 -6 -8 -8 16 -33 26 -27 4 2 7 -3 7 -11 0 -8 9 -18 20 -21 11 -4 18
-10 15 -14 -2 -5 4 -19 15 -31 11 -13 20 -27 20 -32 0 -5 4 -7 9 -3 5 3 12 -4
16 -15 3 -11 13 -20 21 -20 8 0 13 -4 10 -9 -3 -5 4 -11 17 -15 17 -5 19 -8 9
-15 -10 -6 -7 -10 12 -15 15 -4 24 -11 21 -16 -3 -6 1 -10 10 -10 9 0 19 -9
22 -20 3 -11 14 -20 24 -20 11 0 19 -5 19 -11 0 -7 8 -18 18 -26 9 -8 11 -11
3 -7 -9 5 -12 3 -7 -4 4 -7 12 -12 18 -12 6 0 17 -8 25 -17 8 -10 12 -12 8 -6
-4 9 -1 11 9 7 9 -3 16 -10 16 -15 0 -5 11 -15 25 -21 14 -6 25 -18 25 -26 0
-9 3 -13 6 -9 9 9 35 -19 32 -35 -2 -6 2 -12 9 -13 12 0 46 -21 67 -41 6 -6
17 -9 25 -6 9 3 11 0 7 -7 -5 -8 0 -10 18 -7 14 3 25 2 24 -2 -2 -13 14 -42
24 -42 5 0 6 6 3 13 -4 6 2 2 13 -10 11 -13 26 -23 34 -23 7 0 20 -9 28 -20
10 -14 16 -16 22 -7 5 8 8 6 8 -7 0 -11 3 -17 6 -13 8 8 34 -18 34 -33 0 -6 5
-8 11 -5 5 4 21 -5 35 -20 13 -14 24 -23 24 -20 0 3 16 -9 35 -26 19 -18 35
-39 35 -46 0 -8 3 -12 8 -10 9 6 33 -19 25 -27 -4 -3 1 -6 10 -6 15 0 22 -11
18 -32 0 -5 3 -7 8 -5 5 1 20 -10 34 -25 14 -15 28 -24 31 -21 3 4 6 1 6 -5 0
-7 7 -12 15 -12 8 0 14 -3 14 -7 -3 -19 2 -34 10 -29 5 3 17 -5 27 -19 10 -13
22 -21 27 -18 6 3 7 1 3 -5 -3 -6 -1 -14 7 -19 7 -4 20 -20 30 -36 10 -15 22
-27 28 -27 13 0 32 -19 48 -48 6 -12 17 -21 23 -19 7 1 12 -3 13 -10 0 -6 3
-15 8 -19 4 -4 7 -17 7 -28 0 -17 2 -18 10 -6 7 11 10 5 11 -25 1 -22 0 -44
-1 -50 -1 -5 -3 -26 -4 -47 0 -20 -4 -34 -9 -31 -4 2 -6 -18 -4 -46 1 -29 -2
-51 -7 -51 -6 0 -5 -5 1 -11 7 -7 8 -20 3 -34 -6 -15 -4 -27 3 -35 8 -9 8 -11
1 -7 -16 9 -24 -26 -11 -48 8 -15 7 -17 -8 -11 -14 5 -15 3 -8 -6 12 -15 14
-70 3 -63 -10 6 -8 -15 3 -32 4 -6 3 -14 -3 -18 -6 -4 -7 -12 -3 -18 11 -19
13 -58 1 -51 -6 4 -5 -3 2 -16 8 -15 8 -20 1 -16 -6 4 -12 2 -12 -3 -2 -14 -6
-29 -9 -36 -1 -3 -3 -11 -4 -17 -1 -7 -8 -12 -15 -10 -7 1 -10 -2 -7 -7 6 -10
-21 -69 -41 -89 -7 -8 -10 -18 -7 -24 4 -6 2 -8 -4 -4 -6 3 -13 2 -17 -4 -4
-6 -12 -7 -18 -4 -7 4 -9 4 -5 -1 9 -10 -32 -41 -47 -37 -5 2 -7 0 -3 -4 4 -4
-8 -20 -27 -37 -19 -16 -32 -33 -29 -38 3 -5 -1 -6 -9 -3 -9 3 -16 -3 -20 -15
-3 -12 -12 -21 -21 -21 -8 0 -26 -10 -39 -22 -40 -39 -61 -53 -77 -53 -8 0
-28 -13 -44 -30 -16 -16 -25 -24 -21 -16 5 9 4 12 -3 7 -7 -4 -12 -14 -12 -22
0 -8 -4 -13 -9 -9 -6 3 -14 -3 -20 -12 -6 -10 -11 -15 -11 -10 0 4 -10 1 -23
-8 -13 -8 -27 -12 -30 -8 -4 3 -7 0 -7 -8 0 -11 -2 -11 -10 1 -8 13 -10 12
-10 -3 0 -10 -4 -16 -9 -12 -5 3 -12 1 -16 -5 -4 -6 -11 -8 -16 -5 -5 4 -9 2
-9 -3 0 -13 -70 -43 -82 -36 -7 5 -8 2 -3 -6 6 -10 4 -12 -8 -7 -10 4 -17 1
-17 -5 0 -6 -3 -8 -7 -5 -3 4 -17 0 -31 -9 -18 -12 -23 -12 -17 -3 3 8 0 6 -9
-5 -8 -10 -19 -15 -25 -11 -6 3 -11 1 -11 -5 0 -7 -7 -10 -15 -6 -8 3 -15 1
-15 -5 0 -6 -8 -9 -17 -7 -10 2 -26 -3 -35 -11 -9 -8 -23 -16 -30 -17 -31 -5
-43 -10 -50 -19 -5 -6 -8 -5 -8 3 0 10 -4 10 -16 -2 -18 -19 -38 -21 -29 -3 4
6 0 4 -9 -7 -8 -10 -19 -15 -25 -12 -5 4 -12 2 -16 -3 -3 -5 -14 -8 -25 -6
-12 2 -18 0 -15 -4 3 -5 -2 -11 -10 -15 -8 -3 -15 -1 -15 5 0 6 -7 6 -19 -1
-26 -13 -34 -13 -25 3 4 6 -3 3 -16 -8 -14 -12 -20 -14 -15 -5 8 13 7 13 -8 1
-9 -7 -17 -10 -17 -7 0 4 -6 4 -12 0 -11 -7 -27 -11 -65 -16 -7 -1 -13 -6 -13
-11 0 -5 -8 -3 -17 4 -9 8 -14 9 -10 3 4 -7 -3 -14 -18 -16 -15 -3 -25 -1 -25
6 0 7 -3 7 -8 -1 -4 -6 -21 -15 -37 -18 -38 -8 -59 -13 -62 -15 -2 -1 -13 -3
-25 -3 -13 -1 -27 -6 -31 -11 -6 -8 -10 -7 -13 1 -3 7 -12 9 -20 6 -7 -3 -11
-10 -8 -15 4 -6 -3 -5 -15 1 -16 9 -21 9 -21 0 0 -6 -7 -9 -15 -5 -8 3 -15 0
-15 -7 0 -8 -4 -7 -10 3 -7 10 -12 12 -17 4 -10 -14 -72 -24 -79 -12 -3 5 -9
6 -13 4 -4 -3 -25 -6 -47 -8 -21 -1 -42 -6 -46 -12 -4 -6 -12 -5 -21 3 -9 7
-16 8 -19 2 -4 -13 -50 -23 -113 -25 -27 0 -56 -5 -64 -10 -8 -5 -12 -5 -8 0
7 12 -116 11 -125 -1 -5 -7 -8 -7 -8 0 0 6 -18 10 -40 11 -22 0 -40 -3 -40 -7
0 -9 -20 -6 -39 5 -9 6 -12 5 -8 -1 4 -5 -24 -8 -71 -5 -42 2 -78 7 -80 12 -2
5 -15 6 -28 4 -14 -3 -23 -1 -21 3 3 4 -6 8 -19 8 -13 0 -24 -3 -24 -7 0 -4
-13 -3 -29 2 -16 4 -32 5 -35 2 -4 -3 -15 -6 -26 -7 -14 -1 -17 2 -10 10 8 9
4 12 -15 10 -14 -2 -28 1 -31 6 -3 6 -15 7 -26 3 -15 -4 -18 -3 -13 7 6 9 4
11 -7 6 -9 -3 -25 1 -37 9 -11 8 -21 11 -21 5 0 -14 -38 -4 -93 24 -17 9 -25
10 -21 3 5 -7 3 -8 -7 -2 -8 5 -22 9 -31 10 -36 3 -39 4 -33 14 3 6 1 10 -4
10 -6 0 -11 -5 -11 -11 0 -8 -4 -8 -12 -2 -7 5 -24 9 -38 8 -26 0 -51 15 -44
27 2 3 -4 4 -14 2 -9 -3 -27 4 -40 16 -14 13 -22 16 -22 8 0 -10 -2 -10 -8 -1
-4 7 -24 19 -45 28 -20 8 -37 20 -37 25 0 7 -7 7 -20 0 -15 -8 -20 -8 -18 2 2
6 -3 12 -10 13 -7 0 -17 7 -22 15 -5 8 -10 11 -10 7 0 -4 -15 6 -33 22 -17 17
-40 31 -49 31 -10 0 -18 5 -18 10 0 6 -7 10 -15 10 -8 0 -15 5 -15 10 0 6 -7
10 -15 10 -8 0 -15 5 -15 10 0 6 -9 10 -21 10 -11 0 -17 5 -14 10 3 6 -4 10
-16 10 -12 0 -20 3 -16 6 10 10 -43 62 -71 69 -17 4 -22 9 -14 14 9 5 4 11
-14 20 -19 8 -25 17 -21 31 3 11 2 18 -3 15 -4 -3 -10 2 -14 10 -3 8 -12 15
-21 15 -8 0 -15 7 -15 15 0 15 -57 62 -71 58 -4 -2 -6 4 -3 11 3 9 -5 21 -20
31 -14 9 -28 25 -31 36 -4 11 -11 17 -16 14 -5 -3 -6 1 -3 9 3 9 1 16 -5 16
-6 0 -11 9 -11 20 0 11 -4 20 -10 20 -5 0 -10 6 -10 13 0 7 -9 19 -19 27 -11
7 -18 17 -15 22 3 4 0 8 -6 8 -6 0 -8 5 -5 10 3 6 3 10 -2 10 -4 0 -14 14 -21
30 -8 17 -18 28 -23 25 -5 -4 -6 1 -3 9 3 9 1 16 -4 16 -11 0 -28 38 -24 53 1
4 -6 7 -15 7 -13 0 -14 3 -5 12 9 9 7 15 -6 25 -9 8 -11 12 -5 8 9 -4 11 -1 7
9 -3 9 -11 13 -16 10 -6 -4 -8 2 -3 15 4 12 2 21 -4 21 -6 0 -10 3 -10 8 3 19
-2 33 -10 28 -7 -5 -19 20 -19 40 0 3 -8 16 -17 30 -9 13 -17 38 -18 53 -1 16
-5 27 -9 24 -7 -3 -10 11 -7 33 0 3 -7 11 -17 18 -9 7 -14 18 -10 24 4 7 2 12
-4 12 -7 0 -10 7 -6 15 3 8 2 15 -3 15 -5 0 -7 10 -7 23 1 12 -3 28 -8 36 -9
12 -8 13 4 7 8 -4 6 0 -4 8 -15 12 -16 16 -5 16 10 1 9 3 -3 11 -10 5 -18 21
-18 34 0 13 -5 27 -11 31 -8 4 -7 9 2 15 11 6 9 9 -5 15 -14 5 -15 9 -4 15 10
7 11 9 0 9 -7 0 -10 5 -7 10 3 6 1 10 -6 10 -9 0 -10 3 -2 11 14 14 5 51 -11
42 -6 -4 -5 1 3 10 7 9 9 17 4 17 -10 0 -9 52 1 69 4 5 2 12 -4 16 -6 4 -8 11
-4 16 3 5 0 17 -8 26 -9 12 -9 15 -1 9 9 -5 12 1 9 23 -2 17 -1 31 3 31 6 0 6
83 1 185 -2 28 -8 56 -14 64 -8 11 -8 13 0 8 7 -4 12 2 12 18 0 14 -6 25 -12
25 -8 0 -8 2 0 8 14 9 14 42 0 42 -6 0 -5 4 3 9 12 8 12 12 2 25 -11 13 -11
16 0 16 11 0 11 2 0 9 -13 8 -13 12 0 27 12 15 12 17 0 9 -11 -6 -13 -4 -8 8
3 10 2 17 -3 17 -6 0 -10 5 -10 11 0 5 5 7 11 3 6 -3 3 8 -6 26 -9 18 -12 29
-5 25 9 -6 9 -2 0 15 -6 12 -10 31 -7 41 3 10 1 22 -5 25 -5 3 -7 12 -4 20 3
8 0 14 -6 14 -6 0 -5 6 3 17 12 14 12 15 1 9 -11 -7 -12 -4 -3 13 8 14 8 21 1
21 -5 0 -10 5 -10 11 0 5 6 7 13 3 8 -5 8 -2 -2 9 -7 9 -9 17 -4 17 5 0 9 9 9
20 0 11 -5 20 -10 20 -5 0 -1 10 10 22 10 12 13 18 5 13 -8 -5 -5 6 8 23 12
18 27 30 32 26 5 -3 8 0 7 7 -2 6 14 21 35 32 20 11 37 27 37 34 0 8 4 12 8 9
4 -2 9 3 10 12 1 9 3 26 4 37 2 11 9 25 16 30 13 10 33 42 51 80 5 12 16 27
25 34 9 7 16 19 16 27 0 7 7 17 15 22 9 4 17 18 18 29 0 12 4 20 8 17 4 -2 13
9 20 25 7 16 16 28 20 25 4 -2 10 10 14 27 5 23 9 28 16 18 7 -11 9 -10 9 4 0
17 33 57 48 57 4 0 7 5 7 10 0 6 7 15 15 20 8 5 11 10 6 10 -5 0 1 8 12 19 12
10 22 24 22 30 0 7 4 10 9 7 5 -3 11 4 14 15 4 13 10 18 18 13 8 -4 10 -3 5 4
-7 12 38 62 55 62 5 0 9 7 9 16 0 8 5 12 10 9 12 -7 42 20 32 29 -3 4 1 4 11
0 10 -3 17 -1 17 5 0 6 7 11 15 11 8 0 14 4 12 8 -3 11 50 62 57 55 3 -4 6 0
6 7 0 7 3 10 7 7 3 -4 12 -2 18 3 7 5 33 11 59 13 39 3 50 9 71 37 14 19 25
30 25 25 0 -5 6 -1 13 10 8 10 19 15 25 11 7 -4 12 -2 12 4 0 6 5 8 10 5 6 -3
10 -1 10 5 0 7 7 10 15 6 8 -3 15 -1 15 5 0 6 5 7 10 4 6 -3 10 -1 10 5 0 6 5
8 10 5 6 -3 13 1 16 10 5 12 9 13 14 5 5 -8 12 -7 24 5 12 12 16 13 16 3 0
-10 2 -10 9 1 5 8 16 11 25 8 9 -4 16 -2 16 4 0 6 7 9 15 5 8 -3 15 -1 15 3 0
5 7 12 16 15 10 4 13 2 8 -7 -4 -6 2 -4 13 6 11 9 31 17 44 17 14 0 31 6 38
13 11 10 12 9 6 -3 -7 -12 -6 -13 6 -3 9 7 20 9 29 3 9 -5 19 -5 27 1 7 6 17
8 23 4 5 -3 10 -2 10 4 0 5 9 8 20 6 11 -2 22 0 25 5 3 4 15 6 27 2 16 -4 19
-2 13 9 -8 12 -6 12 8 0 12 -9 17 -10 17 -2z"/>
<path d="M2513 5365 c-6 -7 -9 -17 -5 -21 4 -5 -1 -3 -10 4 -14 11 -21 9 -44
-17 -15 -17 -29 -29 -32 -26 -6 5 -21 -11 -51 -53 -12 -18 -27 -29 -33 -26 -6
4 -8 2 -5 -3 4 -6 0 -16 -8 -23 -8 -7 -12 -16 -9 -21 3 -5 0 -8 -8 -7 -7 2
-12 -3 -11 -9 2 -7 -2 -13 -7 -13 -7 0 -7 -7 0 -21 l11 -20 19 21 c11 12 24
19 29 15 6 -3 11 1 11 9 0 9 3 15 8 14 15 -3 59 21 82 46 14 14 31 26 38 26 7
0 11 4 8 9 -7 11 21 8 31 -4 4 -4 2 -5 -4 -1 -7 4 -13 2 -13 -4 0 -6 8 -10 18
-8 9 2 23 -5 30 -17 13 -19 13 -19 7 0 -4 14 2 10 23 -12 16 -18 32 -33 36
-33 4 0 17 -11 30 -25 13 -13 26 -22 29 -18 6 6 8 -3 6 -23 -1 -13 46 -31 57
-22 16 12 25 48 12 48 -6 0 -7 7 -4 15 3 9 -1 18 -9 21 -8 4 -15 15 -15 25 0
10 -5 19 -11 19 -5 0 -7 5 -4 10 3 6 -1 10 -9 10 -9 0 -16 6 -16 14 0 8 -13
26 -30 39 -16 14 -30 29 -30 32 0 4 -7 13 -15 21 -8 9 -15 13 -15 9 0 -4 -7 0
-15 9 -9 8 -23 12 -31 9 -9 -3 -19 -1 -23 4 -4 7 -10 6 -18 -2z"/>
<path d="M5290 3940 c0 -5 5 -10 11 -10 5 0 7 5 4 10 -3 6 -8 10 -11 10 -2 0
-4 -4 -4 -10z"/>
</g>
</svg>
