<?xml version="1.0" standalone="no"?>
<!DOCTYPE svg PUBLIC "-//W3C//DTD SVG 20010904//EN"
 "http://www.w3.org/TR/2001/REC-SVG-20010904/DTD/svg10.dtd">
<svg version="1.0" xmlns="http://www.w3.org/2000/svg"
 width="50.000000pt" height="50.000000pt" viewBox="0 0 50.000000 50.000000"
 preserveAspectRatio="xMidYMid meet">

<g transform="translate(0.000000,50.000000) scale(0.100000,-0.100000)"
fill="#000000" stroke="none">
<path d="M57 442 c-15 -16 -17 -45 -17 -194 0 -157 2 -177 18 -191 16 -15 45
-17 194 -17 157 0 177 2 191 18 15 16 17 45 17 194 0 157 -2 177 -18 191 -16
15 -45 17 -194 17 -157 0 -177 -2 -191 -18z m378 -192 l0 -185 -185 0 -185 0
-3 175 c-1 96 0 180 3 187 3 11 44 13 187 11 l183 -3 0 -185z"/>
<path d="M160 333 c0 -4 17 -24 37 -45 l37 -38 -39 -40 c-51 -52 -37 -66 15
-15 l40 39 40 -39 c22 -21 43 -36 47 -32 4 4 -11 25 -32 47 l-39 40 39 40 c51
52 37 66 -15 15 l-40 -39 -38 37 c-37 36 -52 45 -52 30z"/>
</g>
</svg>
